<?xml version="1.0" ?><svg id="Слой_1" style="enable-background:new 0 0 32 32;" version="1.1" viewBox="0 0 32 32" xml:space="preserve" xmlns="http://www.w3.org/2000/svg" xmlns:xlink="http://www.w3.org/1999/xlink"><style type="text/css">
	.st0{fill:none;stroke:#201600;stroke-width:4;stroke-miterlimit:10;}
</style><path class="st0" d="M13,30V6.5C13,4,11,2,8.5,2h0C6,2,4,4,4,6.5V30"/><path class="st0" d="M4,30V6.5C4,4.2,2.3,2.3,0,2"/><path class="st0" d="M13,30V6.5C13,4,15,2,17.5,2h0C20,2,22,4,22,6.5L22,26c0,2.2,1.8,4,4,4h0c2.2,0,4-1.8,4-4v-9l-4,3"/></svg>